# xmcd
#
# Track frame offsets: 
#        150
#        3647
#        10982
#        22070
#        27830
#        38322
#        46647
#        49995
#        53217
#        63632
#        70077
#
# Disc length: 995 seconds
#
# Revision: 1
# Processed by: cddbd v1.5.2PL0 Copyright (c) Steve Scherf et al.
# Submitted via: ExactAudioCopyFreeDBPlugin 1.0
#
DISCID=8803e10b
DTITLE=Johnny Cash - Cash:  The Legend (Deluxe Edition) [picture book 
DTITLE=box set]
DYEAR=2010
DGENRE=Country
TTITLE0=KWEM Announcements and Advertisements
TTITLE1=Johnny Cash Introduction
TTITLE2=Wide Open Road
TTITLE3=Home Equipment Company Advertisement
TTITLE4=One More Ride
TTITLE5=Advertisement - Introduction of Luther Perkins
TTITLE6=Luther's Boogie
TTITLE7=Introduction to Belshazzer
TTITLE8=Belshazzer
TTITLE9=Closing Comments - Outro
TTITLE10=Country Jamboree Advertisement
EXTD=
EXTT0=
EXTT1=
EXTT2=
EXTT3=
EXTT4=
EXTT5=
EXTT6=
EXTT7=
EXTT8=
EXTT9=
EXTT10=
PLAYORDER=
